<svg xmlns="http://www.w3.org/2000/svg" version="1.1" xmlns:xlink="http://www.w3.org/1999/xlink" xmlns:svgjs="http://svgjs.dev/svgjs" width="1000" height="1000" viewBox="0 0 1000 1000"><rect width="1000" height="1000" fill="#000000"></rect><g transform="matrix(0.7,0,0,0.7,150.1029944073399,236.66340080971662)"><svg viewBox="0 0 328 247" data-background-color="#ffffff" preserveAspectRatio="xMidYMid meet" height="753" width="1000" xmlns="http://www.w3.org/2000/svg" xmlns:xlink="http://www.w3.org/1999/xlink"><g id="tight-bounds" transform="matrix(1,0,0,1,-0.04826023658213785,-0.09999999999999432)"><svg viewBox="0 0 328.0965204731643 247.2" height="247.2" width="328.0965204731643"><g><svg viewBox="0 0 397.4975999999999 299.48932886667717" height="247.2" width="328.0965204731643"><g><rect width="397.4975999999999" height="5.532444781948556" x="0" y="168.22668724733268" fill="#ffffff" opacity="1" stroke-width="0" stroke="transparent" fill-opacity="1" class="rect-r$-0" data-fill-palette-color="secondary" rx="1%" id="r$-0" data-palette-color="#000000"></rect></g><g transform="matrix(1,0,0,1,0.9887999999999693,188.24197177260206)"><svg viewBox="0 0 395.52 111.24735709407514" height="111.24735709407514" width="395.52"><g id="textblocktransform"><svg viewBox="0 0 395.52 111.24735709407514" height="111.24735709407514" width="395.52" id="textblock"><g><svg viewBox="0 0 395.52 61.348208811233775" height="61.348208811233775" width="395.52"><g transform="matrix(1,0,0,1,0,0)"><svg width="395.52" viewBox="5.25 -35.77 233.21 36.17" height="61.348208811233775" data-palette-color="#010101"><path d="M22.25-10.3L22.25-10.3Q22.63-9.6 22.9-8.8L22.9-8.8Q23.05-9.2 23.21-9.59 23.38-9.98 23.58-10.33L23.58-10.33 37.48-34.9Q37.68-35.23 37.88-35.3 38.08-35.38 38.43-35.38L38.43-35.38 40.2-35.38 40.2 0 37.95 0 37.95-30.15Q37.95-30.8 38.02-31.53L38.02-31.53 24.1-6.8Q23.75-6.15 23.1-6.15L23.1-6.15 22.7-6.15Q22.08-6.15 21.7-6.8L21.7-6.8 7.4-31.55Q7.48-30.83 7.48-30.15L7.48-30.15 7.48 0 5.25 0 5.25-35.38 7-35.38Q7.35-35.38 7.56-35.3 7.78-35.23 7.98-34.9L7.98-34.9 22.25-10.3ZM51.95-35.38L51.95-35.38Q52.3-35.38 52.5-35.29 52.7-35.2 52.92-34.9L52.92-34.9 75.82-4.25Q75.75-5 75.75-5.7L75.75-5.7 75.75-35.38 78-35.38 78 0 76.77 0Q76.2 0 75.85-0.5L75.85-0.5 52.85-31.2Q52.92-30.45 52.92-29.78L52.92-29.78 52.92 0 50.7 0 50.7-35.38 51.95-35.38ZM114.2-5.95L114.2-5.95Q114.45-5.95 114.62-5.78L114.62-5.78 115.62-4.7Q114.52-3.53 113.22-2.59 111.92-1.65 110.38-0.99 108.84-0.33 107.01 0.04 105.17 0.4 102.97 0.4L102.97 0.4Q99.3 0.4 96.23-0.89 93.17-2.18 90.98-4.54 88.8-6.9 87.57-10.25 86.34-13.6 86.34-17.7L86.34-17.7Q86.34-21.73 87.61-25.05 88.87-28.38 91.16-30.76 93.45-33.15 96.63-34.46 99.82-35.77 103.67-35.77L103.67-35.77Q105.59-35.77 107.2-35.49 108.8-35.2 110.18-34.66 111.57-34.13 112.8-33.33 114.02-32.52 115.2-31.48L115.2-31.48 114.42-30.35Q114.22-30.05 113.8-30.05L113.8-30.05Q113.57-30.05 113.22-30.31 112.87-30.58 112.33-30.96 111.8-31.35 111.03-31.81 110.27-32.27 109.22-32.66 108.17-33.05 106.8-33.31 105.42-33.58 103.67-33.58L103.67-33.58Q100.45-33.58 97.75-32.46 95.05-31.35 93.09-29.29 91.15-27.23 90.06-24.29 88.97-21.35 88.97-17.7L88.97-17.7Q88.97-13.95 90.05-11 91.12-8.05 93.02-6.01 94.92-3.98 97.51-2.89 100.09-1.8 103.12-1.8L103.12-1.8Q105.02-1.8 106.51-2.05 108-2.3 109.25-2.8 110.5-3.3 111.57-4.03 112.65-4.75 113.7-5.73L113.7-5.73Q113.82-5.83 113.93-5.89 114.05-5.95 114.2-5.95ZM135.87-35.38L135.87-2.18 152.64-2.18 152.64 0 133.32 0 133.32-35.38 135.87-35.38ZM162.39-35.38L162.39 0 159.81 0 159.81-35.38 162.39-35.38ZM175.09-35.38L175.09-35.38Q175.44-35.38 175.64-35.29 175.84-35.2 176.06-34.9L176.06-34.9 198.96-4.25Q198.89-5 198.89-5.7L198.89-5.7 198.89-35.38 201.14-35.38 201.14 0 199.91 0Q199.34 0 198.99-0.5L198.99-0.5 175.99-31.2Q176.06-30.45 176.06-29.78L176.06-29.78 176.06 0 173.84 0 173.84-35.38 175.09-35.38ZM214.93-35.43L214.93-19.05 217.03-19.05Q217.51-19.05 217.86-19.09 218.21-19.13 218.5-19.24 218.78-19.35 219.03-19.53 219.28-19.7 219.56-19.98L219.56-19.98 233.83-34.65Q234.23-35.05 234.57-35.21 234.91-35.38 235.41-35.38L235.41-35.38 237.48-35.38 222.03-19.5Q221.56-19 221.2-18.73 220.83-18.45 220.38-18.28L220.38-18.28Q220.91-18.13 221.32-17.81 221.73-17.5 222.16-17L222.16-17 238.46 0 236.38 0Q235.73 0 235.46-0.19 235.18-0.38 234.88-0.68L234.88-0.68 219.91-15.98Q219.63-16.25 219.41-16.45 219.18-16.65 218.9-16.79 218.61-16.93 218.21-16.99 217.81-17.05 217.21-17.05L217.21-17.05 214.93-17.05 214.93 0 212.38 0 212.38-35.43 214.93-35.43Z" opacity="1" transform="matrix(1,0,0,1,0,0)" fill="#ffffff" class="wordmark-text-0" data-fill-palette-color="primary" id="text-0"></path></svg></g></svg></g><g transform="matrix(1,0,0,1,75.54432,75.8310485545546)"><svg viewBox="0 0 244.43135999999998 35.41630853952055" height="35.41630853952055" width="244.43135999999998"><g transform="matrix(1,0,0,1,0,0)"><svg width="244.43135999999998" viewBox="3.32 -36.25 253.57 36.74" height="35.41630853952055" data-palette-color="#000000"><path d="M32.32-6.59L32.32-3.39Q31.03-2.27 29.46-1.53 27.88-0.78 26.26-0.33 24.63 0.12 23.06 0.31 21.48 0.49 20.21 0.49L20.21 0.49Q16.63 0.49 13.54-0.76 10.45-2 8.18-4.28 5.91-6.57 4.61-9.8 3.32-13.04 3.32-16.99L3.32-16.99Q3.32-20.02 4.08-22.62 4.83-25.22 6.18-27.36 7.52-29.49 9.38-31.15 11.23-32.81 13.43-33.95 15.63-35.08 18.09-35.67 20.56-36.25 23.14-36.25L23.14-36.25Q23.97-36.25 25.02-36.18 26.07-36.11 27.27-35.95 28.47-35.79 29.75-35.53 31.03-35.28 32.35-34.89L32.35-34.89 31.37-30.15 30.88-29.91Q28.34-31.08 26.14-31.52 23.93-31.96 22.31-31.96L22.31-31.96Q19.53-31.96 17.19-30.9 14.84-29.83 13.16-27.98 11.47-26.12 10.53-23.6 9.59-21.07 9.59-18.16L9.59-18.16Q9.59-15.31 10.47-12.74 11.35-10.18 13.05-8.24 14.75-6.3 17.21-5.15 19.68-4 22.88-4L22.88-4Q24.9-4 27.32-4.57 29.74-5.13 32.32-6.59L32.32-6.59ZM56.05-3.81L56.05-3.81Q58.69-3.81 60.84-4.91 62.99-6.01 64.51-7.9 66.04-9.79 66.87-12.33 67.7-14.87 67.7-17.75L67.7-17.75Q67.7-20.8 66.78-23.4 65.87-26 64.26-27.91 62.64-29.81 60.45-30.88 58.25-31.96 55.69-31.96L55.69-31.96Q53.02-31.96 50.88-30.83 48.73-29.71 47.21-27.8 45.7-25.88 44.88-23.34 44.06-20.8 44.06-17.94L44.06-17.94Q44.06-14.89 44.97-12.3 45.87-9.72 47.47-7.84 49.07-5.96 51.27-4.88 53.46-3.81 56.05-3.81ZM55.22 0.49L55.22 0.49Q52.85 0.49 50.63-0.06 48.41-0.61 46.47-1.65 44.53-2.69 42.93-4.2 41.33-5.71 40.17-7.67 39.01-9.62 38.38-11.98 37.74-14.33 37.74-17.04L37.74-17.04Q37.74-19.85 38.43-22.36 39.11-24.88 40.34-27 41.57-29.13 43.31-30.85 45.04-32.57 47.13-33.76 49.22-34.96 51.61-35.61 54-36.25 56.59-36.25L56.59-36.25Q60.08-36.25 63.24-35.07 66.4-33.89 68.8-31.63 71.19-29.37 72.6-26.12 74.02-22.88 74.02-18.75L74.02-18.75Q74.02-15.97 73.35-13.45 72.68-10.94 71.46-8.8 70.24-6.67 68.53-4.94 66.82-3.22 64.73-2.01 62.64-0.81 60.24-0.16 57.83 0.49 55.22 0.49ZM87.37 0L82.17 0 82.17-35.77 90.72-35.77 105.93-12.99 108.44-8.28 108.93-8.28 108.61-13.6 108.61-35.77 113.81-35.77 113.81 0 108.12 0 89.84-27.27 87.54-31.79 87.06-31.79 87.37-26.59 87.37 0ZM128.7 0L123.5 0 123.5-35.77 132.05-35.77 147.26-12.99 149.77-8.28 150.26-8.28 149.94-13.6 149.94-35.77 155.14-35.77 155.14 0 149.46 0 131.17-27.27 128.87-31.79 128.39-31.79 128.7-26.59 128.7 0ZM186.32 0L165.03 0 165.03-35.77 186.78-35.77 185.98-31.47 171.08-31.47 171.08-20.68 184.27-20.68 183.49-16.5 171.08-16.5 171.08-4.3 187.12-4.3 186.32 0ZM222.57-6.59L222.57-3.39Q221.28-2.27 219.7-1.53 218.13-0.78 216.5-0.33 214.88 0.12 213.31 0.31 211.73 0.49 210.46 0.49L210.46 0.49Q206.87 0.49 203.78-0.76 200.7-2 198.43-4.28 196.15-6.57 194.86-9.8 193.57-13.04 193.57-16.99L193.57-16.99Q193.57-20.02 194.32-22.62 195.08-25.22 196.42-27.36 197.77-29.49 199.62-31.15 201.48-32.81 203.67-33.95 205.87-35.08 208.34-35.67 210.8-36.25 213.39-36.25L213.39-36.25Q214.22-36.25 215.27-36.18 216.32-36.11 217.52-35.95 218.71-35.79 219.99-35.53 221.28-35.28 222.59-34.89L222.59-34.89 221.62-30.15 221.13-29.91Q218.59-31.08 216.38-31.52 214.17-31.96 212.56-31.96L212.56-31.96Q209.78-31.96 207.43-30.9 205.09-29.83 203.41-27.98 201.72-26.12 200.78-23.6 199.84-21.07 199.84-18.16L199.84-18.16Q199.84-15.31 200.72-12.74 201.6-10.18 203.3-8.24 204.99-6.3 207.46-5.15 209.92-4 213.12-4L213.12-4Q215.15-4 217.57-4.57 219.98-5.13 222.57-6.59L222.57-6.59ZM244.93-31.47L244.93 0 238.85 0 238.85-31.47 227.26-31.47 228.06-35.77 256.89-35.77 256.09-31.47 244.93-31.47Z" opacity="1" transform="matrix(1,0,0,1,0,0)" fill="#ffffff" class="slogan-text-1" data-fill-palette-color="secondary" id="text-1"></path></svg></g></svg></g></svg></g></svg></g><g transform="matrix(1,0,0,1,139.85732891914537,0)"><svg viewBox="0 0 117.78294216170919 153.74384750401185" height="153.74384750401185" width="117.78294216170919"><g><svg xmlns="http://www.w3.org/2000/svg" xmlns:xlink="http://www.w3.org/1999/xlink" version="1.1" x="8" y="0" viewBox="24.761855407245655 5 59.58264309935908 90" enable-background="new 0 0 100 100" xml:space="preserve" width="101.78294216170919" height="153.74384750401185" class="icon-icon-0" data-fill-palette-color="accent" id="icon-0"><g fill="#f40000" data-fill-palette-color="accent"><path d="M73.76 35.603C86.875 48 91.5 66.25 65.633 82.379c3.64-4.928 5.654-9.794 6.096-14.669 0.951-10.516-5.606-19.072-12.835-26.752C48.298 29.7 47.51 18.84 56.413 6.782 54.578 22.641 64.6 26.944 73.76 35.603zM45.288 93.716c6.184-13.053 7.276-20.302-8.197-34.939-4.204-3.977-7.451-8.029-9.71-12.086-2.881 6.435-5.164 20.081 3.244 27.935C36.312 79.938 44.125 83.125 45.288 93.716zM56.709 43.014C48.183 33.954 41.999 21.253 54 5 21.497 17.692 19.625 38.125 39.151 56.597 55.603 72.158 54.75 80.75 48 95 79.875 71.5 68.709 55.764 56.709 43.014z" fill="#ffffff" data-fill-palette-color="accent"></path></g></svg></g></svg></g><g><rect width="42.49035374535317" height="5.532444781948556" y="147.2114027220633" x="257.6402710808546" fill="#ffffff" data-fill-palette-color="secondary"></rect><rect width="42.49035374535317" height="5.532444781948556" y="147.2114027220633" x="97.3669751737922" fill="#ffffff" data-fill-palette-color="secondary"></rect></g></svg></g><defs></defs></svg><rect width="328.0965204731643" height="247.2" fill="none" stroke="none" visibility="hidden"></rect></g></svg></g></svg>